<svg xmlns="http://www.w3.org/2000/svg" viewBox="0 0 24 24">
  <path d="M12.17 2c3.44 0 5.63 2.43 5.63 5.5v2.34c.9.14 1.6.3 1.6.8 0 .5-.5.7-1.1.8-.1 1.5-.8 2.8-2 3.6.2.4.5.8.9 1.1.6.4 1.3.6 2 .7.3.04.5.3.5.6 0 .3-.2.6-.5.7-.5.2-1.4.3-2.2.6-.4.1-.7.4-1 .9-.2.4-.6.7-1.1.7-.3 0-.6-.1-1-.2-.7-.3-1.4-.5-2.1-.5s-1.4.2-2.1.5c-.4.1-.7.2-1 .2-.5 0-.9-.3-1.1-.7-.3-.5-.6-.8-1-.9-.8-.3-1.7-.4-2.2-.6-.3-.1-.5-.4-.5-.7 0-.3.2-.56.5-.6.7-.1 1.4-.3 2-.7.4-.3.7-.7.9-1.1-1.2-.8-1.9-2.1-2-3.6-.6-.1-1.1-.3-1.1-.8 0-.5.7-.66 1.6-.8V7.5c0-3.07 2.2-5.5 5.64-5.5z" fill="#FFFC00" stroke="#000" stroke-width="0.5"/>
</svg>